<svg width="60" height="60" fill="none" xmlns="http://www.w3.org/2000/svg"><path d="M6 12.4A6.4 6.4 0 0 1 12.4 6h35.2a6.4 6.4 0 0 1 6.4 6.4v35.2a6.4 6.4 0 0 1-6.4 6.4H12.4A6.4 6.4 0 0 1 6 47.6V12.4Z" fill="url(#a)"/><path opacity=".8" d="M18 35.412c0-.78.61-1.412 1.361-1.412h9.278c.752 0 1.361.632 1.361 1.412v2.776c0 .78-.61 1.412-1.361 1.412H19.36c-.752 0-1.361-.632-1.361-1.412v-2.776Z" fill="#fff"/><path d="M18 21.812c0-.78.61-1.412 1.361-1.412H40.64c.752 0 1.361.632 1.361 1.412v2.776c0 .78-.61 1.412-1.361 1.412H19.36C18.61 26 18 25.368 18 24.588v-2.776Z" fill="#fff"/><defs><linearGradient id="a" x1="34.711" y1="64.953" x2="50.536" y2="-3.939" gradientUnits="userSpaceOnUse"><stop stop-color="#0694F9"/><stop offset="1" stop-color="#0257FF"/></linearGradient></defs></svg>
